<svg xmlns="http://www.w3.org/2000/svg" xmlns:xlink="http://www.w3.org/1999/xlink" version="1.1" style="enable-background:new 0 0 215 215;" xml:space="preserve" width="215" height="215"><rect id="backgroundrect" width="100%" height="100%" x="0" y="0" fill="none" stroke="none"/>
<g class="currentLayer" style=""><title>Layer 1</title><path d="M107.5,0C48.225,0,0,48.225,0,107.5S48.225,215,107.5,215S215,166.775,215,107.5S166.775,0,107.5,0z M107.5,200  C56.495,200,15,158.505,15,107.5S56.495,15,107.5,15S200,56.495,200,107.5S158.505,200,107.5,200z M72.08,176.774l100.56-69.274  L72.08,38.226V176.774z M87.08,66.773l59.119,40.727L87.08,148.227V66.773z" id="svg_1" class="selected" fill="#ffffff" fill-opacity="1"/><g id="svg_2">
</g><g id="svg_3">
</g><g id="svg_4">
</g><g id="svg_5">
</g><g id="svg_6">
</g><g id="svg_7">
</g><g id="svg_8">
</g><g id="svg_9">
</g><g id="svg_10">
</g><g id="svg_11">
</g><g id="svg_12">
</g><g id="svg_13">
</g><g id="svg_14">
</g><g id="svg_15">
</g><g id="svg_16">
</g></g></svg>